<svg width="7660" height="1728" viewBox="0 0 7660 1728" fill="none" xmlns="http://www.w3.org/2000/svg">
<g clip-path="url(#clip0_3_780)">
<rect width="7660" height="1728" fill="white"/>
<path d="M4027.3 1469H8979.9C9109.74 1467 9197.69 1464.2 9229.7 1459.9C9761.31 1386.91 7789.84 1243.13 7597.18 1240.53C6928.56 1231.43 6726.03 1093.35 7734.2 1073.65C7937.63 1069.65 8967.64 1083.45 9084.91 1031.16C9202.48 978.766 8076.74 939.571 8272.39 874.08C8468.04 808.688 9446.59 828.686 10112.5 821.687C10659.7 815.987 10848.2 750.396 10320.4 723H4027V1469H4027.3Z" fill="#122D3F"/>
<path d="M-648 670.28H3996.16C4013.96 670.28 4028.35 655.074 4028.35 636.266L4028.07 633.766C4050.23 631.365 4067.55 611.557 4067.55 587.448V-9.98327H5441.19V723H3449.01H-648V670.28Z" fill="#153451"/>
<path d="M646.586 670.275H5290.74C5308.54 670.275 5322.94 655.069 5322.94 636.262L5322.65 633.761C5344.81 631.36 5362.14 611.552 5362.14 587.443V-9.98779L9765 -10V722.983L4743.6 722.995H646.586V670.275Z" fill="#153451"/>
<path d="M5077.22 1625.72C5010.37 1458.65 4147.77 1481.84 3873.36 1468.65H5441.01V1786.09H4926.48C5043.13 1750.5 5107.33 1701.01 5077.22 1625.72Z" fill="#122D3F"/>
<path d="M5440.91 1468.64H3873.36C3832.27 1466.64 3804.43 1463.85 3794.3 1459.55C3626.04 1386.56 4250.03 1242.78 4311.01 1240.18C4522.63 1231.08 4586.74 1093.01 4267.64 1073.31C4203.25 1069.31 3877.24 1083.11 3840.13 1030.82C3802.91 978.427 4159.22 939.234 4097.3 873.745C4035.37 808.356 3725.65 828.353 3514.87 821.354C3341.69 815.655 3282.04 750.066 3449.07 722.67H5441.01V1468.64H5440.91Z" fill="#122D3F"/>
<path d="M4926.38 1786.09H-671.676L-671.674 1620.47L-671.672 1454.84L3873.36 1468.65C4147.77 1481.84 5010.37 1458.65 5077.22 1625.72C5107.33 1701.01 5043.13 1750.5 4926.38 1786.09Z" fill="#364F6E"/>
<path d="M8872.07 1871H-70V723H8037.09C7708.47 765.159 7826.02 866.096 8166.57 874.866C8581.26 885.637 9190.64 854.71 9312.47 955.493C9434.31 1056.12 8733.28 1116.59 8806.49 1197.22C8879.71 1277.69 9521.12 1256.61 9647.62 1262.61C10275.4 1292.77 10149.3 1505.41 9732.94 1519.41C9612.97 1523.41 8385.28 1744.68 8716.33 1857C8736.26 1863.61 8791.22 1867.92 8872.07 1871Z" fill="#364F6E"/>
<path d="M3996.08 670.979H-692V634.785L4023.35 634.785C4024.86 634.785 4026.47 634.685 4027.89 634.485L4028.18 636.985C4028.27 655.782 4013.78 670.979 3996.08 670.979Z" fill="#122D3F"/>
<path d="M4044.24 635H-70V-9H4067V588.486C4067 612.593 4058.04 632.299 4046.59 634.8C4045.86 634.9 4045.03 635 4044.24 635Z" fill="#313A71"/>
<path d="M4067.38 -9.90593H1611.66V633.785H1602.57V-45H4067.38V-9.90593Z" fill="#313A71"/>
<path d="M4067.38 -9.90593V-45L-637.41 -44.9978V633.788H-628.32L4023.35 633.785C4024.86 633.785 4026.47 633.685 4027.89 633.485C4050.05 631.086 4067.38 611.289 4067.38 587.193V-9.90593Z" stroke="black" stroke-width="4.9804" stroke-miterlimit="10" stroke-linecap="round" stroke-linejoin="round"/>
<path d="M7659.78 1468.97H6092.22C6051.13 1466.97 6023.29 1464.17 6013.16 1459.88C5844.9 1386.89 6468.89 1243.11 6529.87 1240.51C6741.5 1231.41 6805.6 1093.34 6486.5 1073.64C6422.11 1069.64 6096.11 1083.44 6058.99 1031.15C6021.78 978.757 6378.08 939.563 6316.16 874.074C6254.23 808.685 5944.51 828.682 5733.74 821.683C5560.55 815.984 5500.9 750.395 5667.93 723H7659.87V1468.97H7659.78Z" fill="#122D3F"/>
<path d="M4258.42 1789H11280.2C11464.3 1786.15 11589 1782.16 11634.4 1776.03C12388.1 1672.03 9592.96 1467.15 9319.81 1463.45C8371.84 1450.48 8084.69 1253.72 9514.07 1225.66C9802.49 1219.96 11262.8 1239.62 11429.1 1165.11C11595.8 1090.45 9999.72 1034.6 10277.1 941.278C10554.5 848.1 11941.9 876.595 12886.1 866.622C13661.8 858.501 13929.1 765.038 13180.9 726H4258V1789H4258.42Z" fill="#122D3F"/>
<path d="M4084.14 722.67H4026.95" stroke="black" stroke-width="4.9804" stroke-miterlimit="10" stroke-linecap="round" stroke-linejoin="round"/>
<path d="M7657.67 723H4127" stroke="black" stroke-width="4.9804" stroke-miterlimit="10" stroke-linecap="round" stroke-linejoin="round"/>
</g>
<defs>
<clipPath id="clip0_3_780">
<rect width="7660" height="1728" fill="white"/>
</clipPath>
</defs>
</svg>
